<svg width="1000" height="600" viewBox="0 0 1000 600" fill="none" xmlns="http://www.w3.org/2000/svg">
<rect width="1000" height="600" fill="white"/>
<path d="M358.481 177.613L335.901 155L313.287 177.548V184.581H237V310.993C237 363.024 279.334 405.358 331.365 405.358H334.192V433.263C334.192 439.475 339.253 444.504 345.433 444.504V441.086C341.127 441.086 337.61 437.569 337.61 433.263V405.358H340.437C392.467 405.358 434.802 363.024 434.802 310.993V184.581H358.514V177.613H358.481ZM334.159 355.562L307.831 329.235L325.744 311.322L334.159 319.736V323.187V355.562ZM305.761 291.338L323.345 308.922L305.432 326.836L273.254 294.657V267.837L296.064 290.648H305.037L305.761 291.371V291.338ZM269.868 250.614V223.498L319.302 272.932L305.728 286.506L269.835 250.614H269.868ZM333.567 359.802L328.308 365.061H306.714L276.869 335.217V312.045L295.769 330.944H304.742L333.567 359.77V359.802ZM328.177 308.922L334.159 302.94V314.871L328.177 308.889V308.922ZM334.159 294.657V298.109L325.777 306.49L308.193 288.906L321.735 275.364L334.159 287.788V294.657ZM334.159 282.956L324.134 272.932L334.159 262.907V282.923V282.956ZM334.159 258.075L321.735 270.532L272.301 221.098H300.797L334.192 254.492V258.108L334.159 258.075ZM334.159 249.628L302.211 217.647H266.45V252.027L301.619 287.196H297.478L269.835 259.554V296.071L301.323 327.559H297.182L273.418 303.795V336.663L305.267 368.513H329.722L334.192 364.043V401.94H331.365C281.241 401.94 240.451 361.15 240.451 311.026V188H313.32V219.553L332.351 238.584L334.192 240.425V249.595L334.159 249.628ZM334.159 186.291V235.593L316.706 218.14V178.961L334.159 161.541V186.291ZM337.61 186.291V161.541L355.063 178.994V218.173L337.61 235.593V186.291ZM337.61 262.907L347.635 272.932L337.61 282.956V262.907ZM366.337 326.836L348.424 308.922L366.008 291.338L366.731 290.615H375.704L398.515 267.804V294.625L366.337 326.803V326.836ZM367.06 330.977H376.033L394.932 312.078V335.25L365.088 365.094H343.493L338.234 359.835L367.06 331.01V330.977ZM366.008 286.506L352.434 272.932L401.867 223.498V250.614L365.975 286.506H366.008ZM350.034 270.532L337.61 258.075V254.46L371.004 221.065H399.501L350.067 270.499L350.034 270.532ZM337.61 287.788L350.034 275.331L363.576 288.873L345.991 306.457L337.61 298.076V294.625V287.788ZM343.592 308.922L337.61 314.904V302.973L343.592 308.955V308.922ZM337.61 323.187V319.769L346.024 311.355L363.937 329.268L337.61 355.595V323.187ZM431.35 188V310.993C431.35 361.117 390.561 401.907 340.437 401.907H337.61V364.01L342.08 368.48H366.534L398.383 336.63V303.762L374.62 327.526H370.478L401.966 296.038V259.521L374.324 287.164H370.182L405.352 251.994V217.614H369.591L337.61 249.595V240.425L358.514 219.586V187.967H431.383L431.35 188Z" fill="black"/>
<path d="M504.942 268.33H533.866V266.391H532.847C526.701 266.391 524.663 264.747 524.663 257.516V215.116C524.663 208.773 526.306 206.932 532.42 206.735V204.795H506.158V206.735H508.097C514.441 206.735 516.183 208.773 516.183 214.196V234.311H479.962V216.529C479.962 208.674 481.178 206.735 488.442 206.735V204.795H464.119V206.735C469.74 207.129 471.482 208.674 471.482 213.999V258.962C471.482 264.78 469.444 266.424 463.396 266.424H462.772V268.363H488.409V266.424H488.113C481.277 266.424 479.929 264.09 479.929 257.418V237.992H516.15V258.732C516.15 264.057 514.704 266.391 508.064 266.391H504.909V268.33H504.942Z" fill="black"/>
<path d="M739.621 203.251H737.682C737.583 203.875 737.156 204.269 736.564 204.467C735.94 204.664 735.25 204.763 734.526 204.763H686.013C685.29 204.763 684.567 204.664 683.975 204.467C683.35 204.269 682.956 203.842 682.857 203.251H680.918V204.565L679.735 219.783H681.641C682.2 210.284 683.909 208.444 688.577 208.444H706.26V258.699C706.26 264.024 704.846 266.358 698.174 266.358H695.019V268.297H723.943V266.358H722.924C716.778 266.358 714.74 264.714 714.74 257.483V208.444H731.963C736.597 208.444 737.156 210.284 737.748 219.783H739.654V203.218L739.621 203.251Z" fill="black"/>
<path d="M644.928 260.902V213.801C644.928 207.458 646.67 206.735 653.31 206.735H657.09V204.795H626.949V206.735H628.396C634.838 206.735 636.481 208.97 636.481 214.393V259.653C636.481 264.879 634.739 266.391 630.039 266.391H626.654V268.33H672.308L677.895 255.906H675.726C672.242 261.986 670.796 264.649 664.025 264.649H649.004C646.046 264.649 644.928 263.63 644.928 260.869" fill="black"/>
<path d="M615.74 206.735V204.795H591.845V206.735C600.292 207.129 601.804 208.871 601.804 218.633V243.942C601.804 260.376 591.254 265.503 582.018 265.503C572.782 265.503 562.231 257.845 562.231 243.942C562.231 238.354 562.231 214.36 562.231 214.36C562.231 208.477 564.696 206.735 570.284 206.735H571.204V204.795H545.074V206.735C551.976 206.833 553.817 207.852 553.817 214.36C553.817 214.36 553.817 239.176 553.817 244.237C553.817 264.747 569.856 270.828 580.177 270.828C598.846 270.828 606.537 256.99 606.537 244.237C606.537 240.096 606.537 216.069 606.537 216.069C606.537 209.561 609.002 206.8 615.806 206.702" fill="black"/>
<path d="M468.129 317.206V298.668H471.318V317.206H468.129Z" fill="black"/>
<path d="M492.189 317.206L483.019 303.171V317.206H479.897V298.668H483.907L492.321 311.816V298.668H495.443V317.206H492.189Z" fill="black"/>
<path d="M511.285 301.627V317.206H508.13V301.627H502.115V298.668H517.3V301.627H511.253H511.285Z" fill="black"/>
<path d="M524.006 317.206V298.668H535.444V301.594H527.128V306.524H534.655V309.384H527.128V314.314H535.444V317.239H524.006V317.206Z" fill="black"/>
<path d="M548.526 309.877H546.225V317.206H543.069V298.668H550.169C553.752 298.668 555.987 301.166 555.987 304.289C555.987 306.918 554.376 308.956 551.812 309.581L555.987 317.206H552.437L548.558 309.877H548.526ZM549.61 307.116C551.549 307.116 552.798 305.998 552.798 304.289C552.798 302.58 551.549 301.429 549.61 301.429H546.225V307.116H549.61Z" fill="black"/>
<path d="M575.741 317.206L566.57 303.171V317.206H563.448V298.668H567.458L575.872 311.816V298.668H578.995V317.206H575.741Z" fill="black"/>
<path d="M598.485 312.539H590.629L588.887 317.206H585.568L592.799 298.668H596.414L603.645 317.206H600.227L598.485 312.539ZM591.714 309.647H597.367L594.541 302.054L591.714 309.647Z" fill="black"/>
<path d="M615.643 301.627V317.206H612.487V301.627H606.472V298.668H621.657V301.627H615.61H615.643Z" fill="black"/>
<path d="M628.363 317.206V298.668H631.551V317.206H628.363Z" fill="black"/>
<path d="M648.347 298.273C653.211 298.273 657.78 301.856 657.78 307.937C657.78 314.017 653.211 317.6 648.347 317.6C643.482 317.6 638.913 314.017 638.913 307.937C638.913 301.856 643.449 298.273 648.347 298.273ZM648.347 314.609C651.469 314.609 654.559 312.374 654.559 307.904C654.559 303.434 651.469 301.199 648.347 301.199C645.224 301.199 642.135 303.434 642.135 307.904C642.135 312.374 645.224 314.609 648.347 314.609Z" fill="black"/>
<path d="M677.468 317.206L668.297 303.171V317.206H665.142V298.668H669.152L677.566 311.816V298.668H680.722V317.206H677.468Z" fill="black"/>
<path d="M700.18 312.539H692.324L690.615 317.206H687.295L694.526 298.668H698.175L705.406 317.206H701.987L700.245 312.539H700.18ZM693.442 309.647H699.095L696.268 302.054L693.442 309.647Z" fill="black"/>
<path d="M711.946 317.206V298.668H715.101V314.215H723.614V317.206H711.979H711.946Z" fill="black"/>
<path d="M474.539 338.471C478.088 338.471 480.192 340.575 480.192 343.467C480.192 345.439 479.042 346.886 477.431 347.477C479.403 348.003 480.751 349.712 480.751 351.882C480.751 354.873 478.45 357.009 474.999 357.009H468.162V338.471H474.539ZM474.111 346.327C475.952 346.327 477.037 345.275 477.037 343.73C477.037 342.185 475.952 341.134 474.046 341.134H471.285V346.294H474.144L474.111 346.327ZM474.44 354.347C476.314 354.347 477.563 353.328 477.563 351.684C477.563 350.041 476.478 348.956 474.572 348.956H471.285V354.347H474.473H474.44Z" fill="black"/>
<path d="M488.048 350.567V338.471H491.17V350.37C491.17 352.999 492.616 354.413 494.95 354.413C497.284 354.413 498.73 352.966 498.73 350.37V338.471H501.885V350.567C501.885 355.037 498.861 357.404 494.95 357.404C491.039 357.404 488.048 355.037 488.048 350.567Z" fill="black"/>
<path d="M519.503 343.698C519.306 342.547 518.353 340.838 515.855 340.838C513.981 340.838 512.667 342.087 512.667 343.5C512.667 344.684 513.39 345.571 514.836 345.867L517.498 346.426C520.752 347.083 522.527 349.154 522.527 351.75C522.527 354.61 520.193 357.371 515.953 357.371C511.253 357.371 509.084 354.347 508.788 351.685L511.713 350.863C511.911 352.802 513.291 354.577 515.953 354.577C518.189 354.577 519.339 353.46 519.339 352.013C519.339 350.797 518.451 349.844 516.841 349.515L514.211 348.957C511.385 348.365 509.511 346.524 509.511 343.763C509.511 340.641 512.371 338.077 515.822 338.077C520.193 338.077 521.903 340.739 522.297 342.81L519.47 343.698H519.503Z" fill="black"/>
<path d="M529.922 357.009V338.471H533.11V357.009H529.922Z" fill="black"/>
<path d="M553.949 357.009L544.779 342.974V357.009H541.657V338.471H545.667L554.081 351.619V338.471H557.203V357.009H553.949Z" fill="black"/>
<path d="M565.781 357.009V338.471H577.219V341.397H568.904V346.327H576.43V349.186H568.904V354.117H577.219V357.042H565.781V357.009Z" fill="black"/>
<path d="M594.114 343.698C593.917 342.547 592.964 340.838 590.466 340.838C588.592 340.838 587.278 342.087 587.278 343.5C587.278 344.684 588.001 345.571 589.447 345.867L592.109 346.426C595.363 347.083 597.138 349.154 597.138 351.75C597.138 354.61 594.805 357.371 590.565 357.371C585.864 357.371 583.695 354.347 583.399 351.685L586.325 350.863C586.522 352.802 587.902 354.577 590.565 354.577C592.8 354.577 593.95 353.46 593.95 352.013C593.95 350.797 593.063 349.844 591.452 349.515L588.823 348.957C585.996 348.365 584.122 346.524 584.122 343.763C584.122 340.641 586.982 338.077 590.433 338.077C594.805 338.077 596.514 340.739 596.908 342.81L594.081 343.698H594.114Z" fill="black"/>
<path d="M613.769 343.698C613.572 342.547 612.618 340.838 610.12 340.838C608.247 340.838 606.932 342.087 606.932 343.5C606.932 344.684 607.655 345.571 609.101 345.867L611.764 346.426C615.018 347.083 616.793 349.154 616.793 351.75C616.793 354.61 614.459 357.371 610.219 357.371C605.519 357.371 603.35 354.347 603.054 351.685L605.979 350.863C606.176 352.802 607.557 354.577 610.219 354.577C612.454 354.577 613.604 353.46 613.604 352.013C613.604 350.797 612.717 349.844 611.106 349.515L608.477 348.957C605.65 348.365 603.777 346.524 603.777 343.763C603.777 340.641 606.636 338.077 610.088 338.077C614.459 338.077 616.168 340.739 616.563 342.81L613.736 343.698H613.769Z" fill="black"/>
<path d="M643.646 343.698C643.449 342.547 642.496 340.838 639.998 340.838C638.124 340.838 636.809 342.087 636.809 343.5C636.809 344.684 637.532 345.571 638.979 345.867L641.641 346.426C644.895 347.083 646.67 349.154 646.67 351.75C646.67 354.61 644.336 357.371 640.096 357.371C635.396 357.371 633.227 354.347 632.931 351.685L635.856 350.863C636.053 352.802 637.434 354.577 640.096 354.577C642.331 354.577 643.482 353.46 643.482 352.013C643.482 350.797 642.594 349.844 640.984 349.515L638.354 348.957C635.527 348.365 633.654 346.524 633.654 343.763C633.654 340.641 636.513 338.077 639.965 338.077C644.336 338.077 646.045 340.739 646.44 342.81L643.613 343.698H643.646Z" fill="black"/>
<path d="M652.849 347.773C652.849 341.726 657.385 338.11 662.184 338.11C666.983 338.11 669.678 340.871 670.532 344.125L667.574 345.111C667.015 342.876 665.306 341.068 662.184 341.068C659.061 341.068 656.07 343.303 656.07 347.773C656.07 352.244 659.061 354.413 662.217 354.413C665.372 354.413 667.114 352.441 667.739 350.337L670.598 351.29C669.776 354.413 666.95 357.437 662.217 357.437C657.221 357.437 652.849 353.821 652.849 347.773Z" fill="black"/>
<path d="M689.432 357.009V349.088H680.722V357.009H677.567V338.471H680.722V346.13H689.432V338.471H692.587V357.009H689.432Z" fill="black"/>
<path d="M709.383 338.077C714.247 338.077 718.816 341.66 718.816 347.74C718.816 353.821 714.247 357.404 709.383 357.404C704.518 357.404 699.982 353.821 699.982 347.74C699.982 341.66 704.518 338.077 709.383 338.077ZM709.383 354.446C712.538 354.446 715.595 352.211 715.595 347.74C715.595 343.27 712.505 341.035 709.383 341.035C706.26 341.035 703.171 343.27 703.171 347.74C703.171 352.211 706.26 354.446 709.383 354.446Z" fill="black"/>
<path d="M734.428 338.077C739.293 338.077 743.862 341.66 743.862 347.74C743.862 353.821 739.293 357.404 734.428 357.404C729.564 357.404 725.028 353.821 725.028 347.74C725.028 341.66 729.564 338.077 734.428 338.077ZM734.428 354.446C737.584 354.446 740.641 352.211 740.641 347.74C740.641 343.27 737.551 341.035 734.428 341.035C731.306 341.035 728.216 343.27 728.216 347.74C728.216 352.211 731.306 354.446 734.428 354.446Z" fill="black"/>
<path d="M751.257 357.009V338.471H754.412V354.018H762.925V357.009H751.289H751.257Z" fill="black"/>
</svg>
