<svg width="1000" height="600" viewBox="0 0 1000 600" fill="none" xmlns="http://www.w3.org/2000/svg">
<path d="M358.481 177.613L335.901 155L313.287 177.548V184.581H237V310.993C237 363.024 279.334 405.358 331.365 405.358H334.192V433.263C334.192 439.475 339.253 444.504 345.433 444.504V441.086C341.127 441.086 337.61 437.569 337.61 433.263V405.358H340.437C392.467 405.358 434.802 363.024 434.802 310.993V184.581H358.514V177.613H358.481ZM334.159 355.562L307.831 329.235L325.744 311.322L334.159 319.736V323.187V355.562ZM305.761 291.338L323.345 308.922L305.432 326.836L273.254 294.657V267.837L296.064 290.648H305.037L305.761 291.371V291.338ZM269.868 250.614V223.498L319.302 272.932L305.728 286.506L269.835 250.614H269.868ZM333.567 359.802L328.308 365.061H306.714L276.869 335.217V312.045L295.769 330.944H304.742L333.567 359.77V359.802ZM328.177 308.922L334.159 302.94V314.871L328.177 308.889V308.922ZM334.159 294.657V298.109L325.777 306.49L308.193 288.906L321.735 275.364L334.159 287.788V294.657ZM334.159 282.956L324.134 272.932L334.159 262.907V282.923V282.956ZM334.159 258.075L321.735 270.532L272.301 221.098H300.797L334.192 254.492V258.108L334.159 258.075ZM334.159 249.628L302.211 217.647H266.45V252.027L301.619 287.196H297.478L269.835 259.554V296.071L301.323 327.559H297.182L273.418 303.795V336.663L305.267 368.513H329.722L334.192 364.043V401.94H331.365C281.241 401.94 240.451 361.15 240.451 311.026V188H313.32V219.553L332.351 238.584L334.192 240.425V249.595L334.159 249.628ZM334.159 186.291V235.593L316.706 218.14V178.961L334.159 161.541V186.291ZM337.61 186.291V161.541L355.063 178.994V218.173L337.61 235.593V186.291ZM337.61 262.907L347.635 272.932L337.61 282.956V262.907ZM366.337 326.836L348.424 308.922L366.008 291.338L366.731 290.615H375.704L398.515 267.804V294.625L366.337 326.803V326.836ZM367.06 330.977H376.033L394.932 312.078V335.25L365.088 365.094H343.493L338.234 359.835L367.06 331.01V330.977ZM366.008 286.506L352.434 272.932L401.867 223.498V250.614L365.975 286.506H366.008ZM350.034 270.532L337.61 258.075V254.46L371.004 221.065H399.501L350.067 270.499L350.034 270.532ZM337.61 287.788L350.034 275.331L363.576 288.873L345.991 306.457L337.61 298.076V294.625V287.788ZM343.592 308.922L337.61 314.904V302.973L343.592 308.955V308.922ZM337.61 323.187V319.769L346.024 311.355L363.937 329.268L337.61 355.595V323.187ZM431.35 188V310.993C431.35 361.117 390.561 401.907 340.437 401.907H337.61V364.01L342.08 368.48H366.534L398.383 336.63V303.762L374.62 327.526H370.478L401.966 296.038V259.521L374.324 287.164H370.182L405.352 251.994V217.614H369.591L337.61 249.595V240.425L358.514 219.586V187.967H431.383L431.35 188Z" fill="black"/>
<path d="M504.942 268.33H533.866V266.391H532.847C526.701 266.391 524.663 264.747 524.663 257.516V215.116C524.663 208.773 526.306 206.932 532.42 206.735V204.795H506.158V206.735H508.097C514.441 206.735 516.183 208.773 516.183 214.196V234.311H479.962V216.529C479.962 208.674 481.178 206.735 488.442 206.735V204.795H464.119V206.735C469.74 207.129 471.482 208.674 471.482 213.999V258.962C471.482 264.78 469.444 266.424 463.396 266.424H462.772V268.363H488.409V266.424H488.113C481.277 266.424 479.929 264.09 479.929 257.418V237.992H516.15V258.732C516.15 264.057 514.704 266.391 508.064 266.391H504.909V268.33H504.942Z" fill="black"/>
<path d="M739.621 203.251H737.682C737.583 203.875 737.156 204.269 736.564 204.467C735.94 204.664 735.25 204.763 734.526 204.763H686.013C685.29 204.763 684.567 204.664 683.975 204.467C683.35 204.269 682.956 203.842 682.857 203.251H680.918V204.565L679.735 219.783H681.641C682.2 210.284 683.909 208.444 688.577 208.444H706.26V258.699C706.26 264.024 704.846 266.358 698.174 266.358H695.019V268.297H723.943V266.358H722.924C716.778 266.358 714.74 264.714 714.74 257.483V208.444H731.963C736.597 208.444 737.156 210.284 737.748 219.783H739.654V203.218L739.621 203.251Z" fill="black"/>
<path d="M644.928 260.902V213.801C644.928 207.458 646.67 206.735 653.31 206.735H657.09V204.795H626.949V206.735H628.396C634.838 206.735 636.481 208.97 636.481 214.393V259.653C636.481 264.879 634.739 266.391 630.039 266.391H626.654V268.33H672.308L677.895 255.906H675.726C672.242 261.986 670.796 264.649 664.025 264.649H649.004C646.046 264.649 644.928 263.63 644.928 260.869" fill="black"/>
<path d="M615.74 206.735V204.795H591.845V206.735C600.292 207.129 601.804 208.871 601.804 218.633V243.942C601.804 260.376 591.254 265.503 582.018 265.503C572.782 265.503 562.231 257.845 562.231 243.942C562.231 238.354 562.231 214.36 562.231 214.36C562.231 208.477 564.696 206.735 570.284 206.735H571.204V204.795H545.074V206.735C551.976 206.833 553.817 207.852 553.817 214.36C553.817 214.36 553.817 239.176 553.817 244.237C553.817 264.747 569.856 270.828 580.177 270.828C598.846 270.828 606.537 256.99 606.537 244.237C606.537 240.096 606.537 216.069 606.537 216.069C606.537 209.561 609.002 206.8 615.806 206.702" fill="black"/>
</svg>
